# AST/ASF file generated using VICON BodyLanguage
# -----------------------------------------------
:version 1.10
:name VICON
:units
  mass 1.0
  length 0.45
  angle deg
:documentation
   .ast/.asf automatically generated from VICON data using
   VICON BodyBuilder and BodyLanguage model FoxedUp or BRILLIANT.MOD
:root
   order TX TY TZ RX RY RZ
   axis XYZ
   position 0 0 0  
   orientation 0 0 0 
:bonedata
  begin
     id 1 
     name lhipjoint
     direction 0.604623 -0.733026 0.311616 
     length 2.56391 
     axis 0 0 0  XYZ
  end
  begin
     id 2 
     name lfemur
     direction 0.34202 -0.939693 0  
     length 7.75596  
     axis 0 0 20  XYZ
    dof rx ry rz
    limits (-160.0 20.0)
           (-70.0 70.0)
           (-60.0 70.0)
  end
  begin
     id 3 
     name ltibia
     direction 0.34202 -0.939693 0   
     length 7.63697   
     axis 0 0 20   XYZ
    dof rx
    limits (-10.0 170.0)
  end
  begin
     id 4 
     name lfoot
     direction 0.048038 -0.131983 0.990087   
     length 1.94388   
     axis -90 7.62852e-016 20   XYZ
    dof rx rz
    limits (-45.0 90.0)
           (-70.0 20.0)
  end
  begin
     id 5 
     name ltoes
     direction 1.53565e-011 -4.21929e-011 1   
     length 0.984801   
     axis -90 7.62852e-016 20   XYZ
    dof rx
    limits (-90.0 20.0)
  end
  begin
     id 6 
     name rhipjoint
     direction -0.609162 -0.729836 0.31026   
     length 2.57511  
     axis 0 0 0  XYZ 
  end
  begin
     id 7 
     name rfemur
     direction -0.34202 -0.939693 0   
     length 7.60772   
     axis 0 0 -20   XYZ
    dof rx ry rz
    limits (-160.0 20.0)
           (-70.0 70.0)
           (-70.0 60.0)
  end
  begin
     id 8 
     name rtibia
     direction -0.34202 -0.939693 0   
     length 7.68497   
     axis 0 0 -20   XYZ
    dof rx
    limits (-10.0 170.0)
 end
 begin
     id 9 
     name rfoot
     direction -0.0969806 -0.266452 0.958957   
     length 2.01398  
     axis -90 -7.62852e-016 -20   XYZ
    dof rx rz
    limits (-45.0 90.0)
           (-20.0 70.0)
  end
  begin
     id 10 
     name rtoes
     direction -1.53552e-011 -4.21869e-011 1   
     length 1.00896   
     axis -90 -7.62852e-016 -20   XYZ
    dof rx
    limits (-90.0 20.0)
  end
  begin
     id 11 
     name lowerback
     direction 0.0305179 0.993923 -0.10576   
     length 2.09077   
     axis 0 0 0   XYZ
    dof rx ry rz
    limits (-20.0 45.0)
           (-30.0 30.0)
           (-30.0 30.0)
  end
  begin
     id 12 
     name upperback
     direction -0.0137909 0.999867 0.00873764   
     length 2.08918   
     axis 0 0 0   XYZ
    dof rx ry rz
    limits (-20.0 45.0)
           (-30.0 30.0)
           (-30.0 30.0)
  end
  begin
     id 13 
     name thorax
     direction -0.0278536 0.997917 0.0581839   
     length 2.11939   
     axis 0 0 0   XYZ
    dof rx ry rz
    limits (-20.0 45.0)
           (-30.0 30.0)
           (-30.0 30.0)
  end
  begin
     id 14 
     name lowerneck
     direction 0.0138689 0.999837 -0.0116016   
     length 1.74353   
     axis 0 0 0   XYZ
    dof rx ry rz
    limits (-20.0 45.0)
           (-30.0 30.0)
           (-30.0 30.0)
  end
  begin
     id 15 
     name upperneck
     direction -0.00992078 0.999667 0.0238149   
     length 1.71734   
     axis 0 0 0   XYZ
    dof rx ry rz
    limits (-20.0 45.0)
           (-30.0 30.0)
           (-30.0 30.0)
  end
  begin
     id 16
     name head
     direction -0.00530555 0.999941 0.00944937  
     length 1.78249  
     axis 0 0 0   XYZ
    dof rx ry rz
    limits (-20.0 45.0)
           (-30.0 30.0)
           (-30.0 30.0)
  end
  begin
     id 17 
     name lclavicle
     direction 0.929165 0.366864 0.0454227  
     length 3.65686  
     axis 0 0 0   XYZ
    dof ry rz
    limits (-20.0 10.0)
           (0.0 20.0)
  end
  begin
     id 18 
     name lhumerus
     direction 1 -4.4897e-011 3.05413e-018   
     length 5.15218   
     axis -180 -30 -90   XYZ
    dof rx ry rz
    limits (-60.0 90.0)
           (-90.0 90.0)
           (-90.0 90.0)
  end
  begin
     id 19
     name lradius
     direction 1 -4.48963e-011 5.40022e-027   
     length 3.49459   
     axis -180 -30 -90   XYZ
    dof rx
    limits (-10.0 170.0)
  end
  begin
     id 20
     name lwrist
     direction 1 -4.48966e-011 9.79369e-027   
     length 1.7473   
     axis -4.67603e-015 90 90   XYZ
    dof ry
    limits (-180.0 0.0)
 end
  begin
     id 21 
     name lhand
     direction 1 -4.48996e-011 1.9593e-026   
     length 0.512466   
     axis -1.24987e-014 90 90   XYZ
    dof rx rz
    limits (-90.0 90.0)
           (-45.0 45.0)
  end
  begin
     id 22 
     name lfingers
     direction 1 -4.48931e-011 3.91616e-026   
     length 0.413163   
     axis -2.49979e-014 90 90   XYZ
    dof rx
    limits (0.0 90.0)
  end
  begin
     id 23
     name lthumb
     direction 0.707107 -6.34959e-011 0.707107   
     length 0.593222   
     axis -90 45 5.69224e-014   XYZ
    dof rx rz
    limits (-45.0 45.0)
           (-45.0 45.0)
  end
  begin
     id 24 
     name rclavicle
     direction -0.951469 0.307727 0.00346571   
     length 3.42864  
     axis 0 0 0   XYZ 
    dof ry rz
    limits (-10.0 20.0)
           (-20.0 0.0)
  end
  begin
     id 25 
     name rhumerus
     direction -1 -4.48967e-011 2.58643e-027  
     length 5.44344   
     axis -180 30 90   XYZ
    dof rx ry rz
    limits (-90.0 60.0)
           (-90.0 90.0)
           (-90.0 90.0)
  end
  begin
     id 26 
     name rradius
     direction -1 -4.48973e-011 4.26485e-028   
     length 3.58403   
     axis -180 30 90   XYZ
    dof rx
    limits (-10.0 170.0)
  end
  begin
     id 27 
     name rwrist
     direction -1 -4.48962e-011 9.79331e-027   
     length 1.79202   
     axis -4.67603e-015 -90 -90   XYZ
    dof ry
    limits (-180.0 0.0)
  end
  begin
     id 28
     name rhand
     direction -1 -4.48975e-011 1.95891e-026   
     length 0.34249   
     axis -1.24987e-014 -90 -90   XYZ
    dof rx rz
    limits (-90.0 90.0)
           (-45.0 45.0)
  end
  begin
     id 29
     name rfingers
     direction -1 -4.48893e-011 3.9147e-026   
     length 0.276124   
     axis -2.49979e-014 -90 -90   XYZ
    dof rx
    limits (0.0 90.0)
  end
  begin
     id 30
     name rthumb
     direction -0.707107 -6.34898e-011 0.707107   
     length 0.39646   
     axis -90 -45 -5.69224e-014   XYZ
    dof rx rz
    limits (-45.0 45.0)
           (-45.0 45.0)
  end
:hierarchy
  begin
    root lhipjoint rhipjoint lowerback
    lhipjoint lfemur
    lfemur ltibia
    ltibia lfoot
    lfoot ltoes
    rhipjoint rfemur
    rfemur rtibia
    rtibia rfoot
    rfoot rtoes
    lowerback upperback
    upperback thorax
    thorax lowerneck lclavicle rclavicle
    lowerneck upperneck
    upperneck head
    lclavicle lhumerus
    lhumerus lradius
    lradius lwrist
    lwrist lhand lthumb
    lhand lfingers
    rclavicle rhumerus
    rhumerus rradius
    rradius rwrist
    rwrist rhand rthumb
    rhand rfingers
  end

#!OML:ASF H:\charlestonDancing\Project 1\Capture day 1\Session 1\femaleDancer.ASF
:FULLY-SPECIFIED
:DEGREES
248
root -12.0175 17.5992 -2.87258 -186.305 146.022 -549.491
lowerback 13.5925 1.6493 7.0036
upperback 4.31647 3.17403 0.0370218
thorax -2.66581 1.62526 -4.3967
lowerneck 3.74751 6.18359 11.0746
upperneck 6.26794 8.67363 -2.99573
head 2.04638 4.54776 -2.80513
rclavicle 1.07344e-013 -1.11319e-014
rhumerus -23.6848 34.304 -87.032
rradius 71.599
rwrist 4.28582
rhand -19.1295 -28.6017
rfingers 7.12502
rthumb 7.18017 -58.4599
lclavicle 1.07344e-013 -1.11319e-014
lhumerus -13.7295 12.6641 67.9212
lradius 86.6384
lwrist 26.6275
lhand -14.8637 28.7415
lfingers 7.12502
lthumb 11.2962 58.4173
rfemur 1.9267 -9.03835 30.3257
rtibia 31.6324
rfoot -18.8757 -7.29037
rtoes -28.3917
lfemur -31.4788 4.50712 -6.1733
ltibia 59.5852
lfoot 12.4139 -19.6147
ltoes -22.4914
249
root -12.0664 17.6382 -2.86231 -186.788 145.421 -550.977
lowerback 13.4038 1.58232 7.70719
upperback 4.22766 3.19139 0.636381
thorax -2.64889 1.63103 -4.15602
lowerneck 3.70777 6.17698 11.3827
upperneck 6.02969 8.67899 -3.30769
head 2.00981 4.54638 -2.96968
rclavicle 2.75317e-014 -1.70955e-014
rhumerus -23.8465 33.8051 -86.2217
rradius 72.4811
rwrist 4.14488
rhand -19.5484 -28.6512
rfingers 7.12502
rthumb 6.77577 -58.5228
lclavicle 2.75317e-014 -1.70955e-014
lhumerus -13.9048 12.6563 67.5675
lradius 87.1318
lwrist 26.2177
lhand -14.8247 28.7386
lfingers 7.12502
lthumb 11.3339 58.4124
rfemur 1.02232 -9.958 31.6035
rtibia 32.1214
rfoot -17.875 -6.05431
rtoes -27.3798
lfemur -31.6863 5.10452 -5.75972
ltibia 59.9598
lfoot 13.8317 -17.2521
ltoes -17.9857
250
root -12.0953 17.682 -2.84766 -186.69 145.019 -551.285
lowerback 13.2205 1.64297 7.64854
upperback 4.21084 3.25877 0.892133
thorax -2.57863 1.66561 -3.85519
lowerneck 4.12653 6.32049 11.2454
upperneck 5.18318 8.90084 -3.04064
head 1.64891 4.63465 -2.87664
rclavicle 1.15295e-014 3.57812e-015
rhumerus -24.0629 33.2649 -85.6293
rradius 73.361
rwrist 3.82684
rhand -19.7543 -28.2511
rfingers 7.12502
rthumb 6.57698 -58.129
lclavicle 1.15295e-014 3.57812e-015
lhumerus -14.1398 12.8369 67.0965
lradius 87.5617
lwrist 26.0546
lhand -15.1014 28.6148
lfingers 7.12502
lthumb 11.0669 58.303
rfemur 0.180945 -10.9794 31.6978
rtibia 32.8752
rfoot -16.81 -5.10641
rtoes -29.7412
lfemur -31.2805 5.6117 -6.53553
ltibia 59.6372
lfoot 10.0269 -15.3269
ltoes -19.8833
251
root -12.1164 17.7224 -2.83694 -186.385 145.088 -551.404
lowerback 13.0158 1.84868 7.59295
upperback 4.17459 3.5107 1.03638
thorax -2.48895 1.79179 -3.69753
lowerneck 4.29087 6.4726 11.4797
upperneck 4.64328 9.1296 -3.07995
head 1.47564 4.73745 -2.94284
rclavicle -4.13472e-014 2.14687e-014
rhumerus -24.2912 32.7433 -85.2409
rradius 74.1903
rwrist 3.38276
rhand -20.151 -28.3451
rfingers 7.12502
rthumb 6.194 -58.2345
lclavicle -4.13472e-014 2.14687e-014
lhumerus -14.4336 13.0391 66.4928
lradius 87.9095
lwrist 26.102
lhand -15.4737 28.3115
lfingers 7.12502
lthumb 10.7078 58.0186
rfemur -0.867919 -11.592 31.7077
rtibia 33.8602
rfoot -15.5602 -4.20697
rtoes -32.1276
lfemur -30.6679 6.17493 -7.30858
ltibia 58.6262
lfoot 5.80392 -13.5438
ltoes -20.3958
252
root -12.1316 17.7697 -2.83009 -185.926 145.465 -551.39
lowerback 12.7822 2.09337 7.55729
upperback 4.1233 3.81112 1.11591
thorax -2.38922 1.94193 -3.62266
lowerneck 4.01358 6.68766 11.9682
upperneck 4.66093 9.40645 -3.42064
head 1.60194 4.88012 -3.129
rclavicle -2.18663e-015 -4.21423e-014
rhumerus -24.3684 32.3476 -85.0327
rradius 74.8631
rwrist 2.97836
rhand -20.6021 -28.975
rfingers 7.12502
rthumb 5.75856 -58.8767
lclavicle -2.18663e-015 -4.21423e-014
lhumerus -14.7968 13.3717 65.8124
lradius 88.1712
lwrist 26.1226
lhand -15.7649 28.3203
lfingers 7.12502
lthumb 10.427 58.0417
rfemur -2.07985 -11.7816 31.6552
rtibia 35.0412
rfoot -14.315 -2.91254
rtoes -31.8023
lfemur -29.9163 6.29873 -7.91289
ltibia 57.0913
lfoot 2.85566 -11.2453
ltoes -14.0685
253
root -12.1432 17.8254 -2.82388 -185.013 145.989 -550.613
lowerback 12.5576 2.32552 6.90086
upperback 4.05457 4.01357 1.03753
thorax -2.35938 2.03843 -3.35504
lowerneck 3.52989 7.10132 12.4219
upperneck 5.06411 9.92134 -3.8137
head 1.92083 5.14975 -3.30294
rclavicle -7.0171e-014 2.98177e-014
rhumerus -24.2948 32.3115 -85.042
rradius 75.3275
rwrist 2.71715
rhand -21.0695 -29.2316
rfingers 7.12502
rthumb 5.30729 -59.1452
lclavicle -7.0171e-014 2.98177e-014
lhumerus -15.5788 14.2255 65.0854
lradius 88.5785
lwrist 25.9304
lhand -15.8184 28.4817
lfingers 7.12502
lthumb 10.3753 58.2057
rfemur -3.46216 -11.6655 30.9282
rtibia 36.6362
rfoot -13.6019 -1.77743
rtoes -31.1298
lfemur -29.0384 5.82171 -9.04345
ltibia 55.4036
lfoot -0.436052 -9.3649
ltoes -26.0101
254
root -12.1695 17.8651 -2.82191 -184.474 147.291 -550.342
lowerback 12.6271 2.70008 6.46299
upperback 3.97634 4.46227 1.10638
thorax -2.47341 2.25179 -3.10481
lowerneck 3.07145 7.48073 13.4191
upperneck 5.8008 10.4634 -5.23411
head 2.21645 5.42344 -3.50482
rclavicle -8.84592e-015 1.86858e-014
rhumerus -24.1033 32.5695 -85.1897
rradius 75.61
rwrist 2.62422
rhand -21.6565 -29.4321
rfingers 7.12502
rthumb 4.74045 -59.3591
lclavicle -8.84592e-015 1.86858e-014
lhumerus -16.7869 15.4736 64.377
lradius 89.1519
lwrist 25.8682
lhand -15.9457 28.5753
lfingers 7.12502
lthumb 10.2525 58.3054
rfemur -4.91753 -10.4706 30.894
rtibia 38.504
rfoot -13.3937 -1.52898
rtoes -30.8114
lfemur -28.1791 4.76182 -9.01266
ltibia 53.8953
lfoot -2.31037 -7.56472
ltoes -30.2558
255
root -12.1878 17.8716 -2.83427 -183.272 148.182 -549.115
lowerback 12.5294 3.01893 5.46183
upperback 3.86052 4.74282 0.84649
thorax -2.5772 2.38214 -2.8547
lowerneck 3.01986 7.8333 13.8131
upperneck 5.77593 10.9479 -5.57654
head 2.30288 5.66526 -3.6417
rclavicle -9.10434e-014 -2.38542e-014
rhumerus -23.8575 32.7297 -85.4643
rradius 75.7474
rwrist 2.69445
rhand -21.9821 -29.7199
rfingers 7.12502
rthumb 4.42605 -59.6536
lclavicle -9.10434e-014 -2.38542e-014
lhumerus -17.934 16.5331 63.6868
lradius 89.5651
lwrist 26.2908
lhand -16.3355 28.9052
lfingers 7.12502
lthumb 9.87649 58.6535
rfemur -6.66852 -9.75876 29.7913
rtibia 40.5602
rfoot -13.6261 -1.26666
rtoes -29.754
lfemur -27.8776 3.00562 -9.98871
ltibia 52.8601
lfoot -3.93094 -5.50118
ltoes -33.9848
256
root -12.2127 17.8554 -2.85967 -182.399 148.899 -548.362
lowerback 12.6214 3.25335 5.02399
upperback 3.69528 4.9971 0.628919
thorax -2.79743 2.49689 -2.88526
lowerneck 3.10531 8.12375 14.1671
upperneck 5.61315 11.3618 -5.84328
head 2.31579 5.87102 -3.76079
rclavicle 2.79292e-014 -2.42517e-014
rhumerus -23.6597 32.7482 -85.8713
rradius 75.7813
rwrist 2.75639
rhand -22.0689 -29.6813
rfingers 7.12502
rthumb 4.34226 -59.6168
lclavicle 2.79292e-014 -2.42517e-014
lhumerus -18.9105 17.3179 63.0046
lradius 89.7393
lwrist 26.9617
lhand -16.4939 29.3019
lfingers 7.12502
lthumb 9.7237 59.0575
rfemur -8.33082 -8.92299 29.1135
rtibia 42.2677
rfoot -13.9315 -1.18939
rtoes -25.9278
lfemur -27.9718 1.28808 -10.4672
ltibia 52.3368
lfoot -5.03185 -3.82049
ltoes -36.277
257
root -12.2471 17.8193 -2.88968 -182.037 149.608 -548.393
lowerback 12.7522 3.42103 5.39377
upperback 3.57773 5.27153 0.560143
thorax -2.92763 2.62515 -3.2128
lowerneck 3.40403 8.3648 14.2292
upperneck 5.25782 11.719 -5.85579
head 2.2014 6.04481 -3.77812
rclavicle -8.09054e-014 9.14409e-015
rhumerus -23.4057 32.7059 -86.3327
rradius 75.7134
rwrist 2.75189
rhand -22.1051 -29.5073
rfingers 7.12502
rthumb 4.30726 -59.4435
lclavicle -8.09054e-014 9.14409e-015
lhumerus -19.7279 18.0109 62.425
lradius 89.7541
lwrist 27.684
lhand -16.4109 29.4878
lfingers 7.12502
lthumb 9.80373 59.2395
rfemur -9.72384 -7.61173 29.2361
rtibia 43.381
rfoot -16.6343 -2.13821
rtoes -25.317
lfemur -28.2674 -0.0682346 -10.1361
ltibia 52.211
lfoot -5.85667 -2.5204
ltoes -36.2733
258
root -12.2842 17.7787 -2.90916 -181.572 150.412 -547.981
lowerback 12.7574 3.63709 5.44924
upperback 3.58395 5.55446 0.376381
thorax -2.87352 2.76721 -3.47132
lowerneck 4.45053 8.45111 14.3407
upperneck 4.11214 11.9752 -6.18039
head 1.74209 6.15845 -3.95867
rclavicle -3.02153e-014 1.11319e-014
rhumerus -23.0382 32.6339 -86.8823
rradius 75.5121
rwrist 2.85154
rhand -22.1289 -29.3479
rfingers 7.12502
rthumb 4.28433 -59.2845
lclavicle -3.02153e-014 1.11319e-014
lhumerus -20.3697 18.6581 61.9243
lradius 89.526
lwrist 28.2995
lhand -16.3491 29.6159
lfingers 7.12502
lthumb 9.8634 59.3648
rfemur -10.7895 -6.01399 28.9089
rtibia 43.4455
rfoot -20.915 -5.14504
rtoes -25.7619
lfemur -28.4317 -0.914651 -10.2652
ltibia 52.245
lfoot -6.65542 -1.35399
ltoes -37.5597
